<svg width="16" height="13" viewBox="0 0 16 13" fill="none" xmlns="http://www.w3.org/2000/svg">
<path d="M13.8322 8.33056C13.755 7.78863 13.3411 7.36613 12.8082 7.24019C10.7369 6.74944 10.2176 5.54369 10.13 4.20631C9.76269 4.13725 9.10922 4.0625 8.00001 4.0625C6.89079 4.0625 6.23732 4.13725 5.87 4.20631C5.78239 5.54369 5.26315 6.74944 3.19182 7.24019C2.65892 7.36694 2.24497 7.78863 2.16781 8.33056L1.76833 11.1272C1.62767 12.1119 2.34303 13 3.33811 13H12.6619C13.6562 13 14.3723 12.1119 14.2317 11.1272L13.8322 8.33056ZM8.00001 10.9622C6.87874 10.9622 5.96967 10.0522 5.96967 8.931C5.96967 7.80975 6.87874 6.89975 8.00001 6.89975C9.12127 6.89975 10.0303 7.80975 10.0303 8.931C10.0303 10.0522 9.12047 10.9622 8.00001 10.9622ZM15.9976 3.25C15.9783 2.03125 12.9095 0.0008125 8.00001 0C3.08974 0.0008125 0.0209236 2.03125 0.00243672 3.25C-0.0160501 4.46875 0.019316 6.05475 2.04001 5.79069C4.40391 5.48112 4.25843 4.64669 4.25843 3.45394C4.25843 2.62194 6.18106 2.42125 8.00001 2.42125C9.81895 2.42125 11.7408 2.62194 11.7416 3.45394C11.7416 4.64669 11.5961 5.48112 13.96 5.79069C15.9799 6.05475 16.0161 4.46875 15.9976 3.25Z" fill="#DD4646"/>
</svg>
